<mxfile host="app.diagrams.net" modified="2023-09-18T02:50:38.672Z" agent="Mozilla/5.0 (Windows NT 10.0; Win64; x64) AppleWebKit/537.36 (KHTML, like Gecko) Chrome/116.0.0.0 Safari/537.36" version="21.7.5" etag="29wY_s-DMc3y9l6Ul26-" type="github">
  <diagram name="第 1 页" id="9gfxH8n1J6P4EuzmXc7f">
    <mxGraphModel>
      <root>
        <mxCell id="0" />
        <mxCell id="1" parent="0" />
      </root>
    </mxGraphModel>
  </diagram>
</mxfile>
